# xmcd
#
# Track frame offsets: 
#        150
#        3158
#        11191
#        14749
#        19159
#        25786
#        29200
#        35174
#        39999
#        47960
#        62144
#        67464
#        71986
#        73937
#        76600
#        80435
#        88734
#        103315
#        103765
#        116156
#        116867
#        118043
#        198587
#        212782
#        241540
#        253042
#        317211
#
# Disc length: 4686 seconds
#
# Revision: 0
# Processed by: cddbd v1.5.2PL0 Copyright (c) Steve Scherf et al.
# Submitted via: ExactAudioCopy v0.95b4
#
DISCID=99124c1b
DTITLE=The Beatles  - AB  Road - Complete Purple Chick Set v1.1 Jan.08
DTITLE=Various Artist - D4  FLAC
DYEAR=1900
DGENRE=
TTITLE0=Dialogue
TTITLE1=Rock And Roll Music 8.118
TTITLE2=I Me Mine 8.119
TTITLE3=I Me Mine 8.120
TTITLE4=I Me Mine 8.121
TTITLE5=I Me Mine 8.122
TTITLE6=I Me Mine 8.123
TTITLE7=I Me Mine 8.124
TTITLE8=I Me Mine 8.125
TTITLE9=I Me Mine 8.126
TTITLE10=I Me Mine 8.127
TTITLE11=I Me Mine 8.128
TTITLE12=I Me Mine 8.129
TTITLE13=I Me Mine 8.130
TTITLE14=I Me Mine 8.131
TTITLE15=I Me Mine 8.132
TTITLE16=The Long And Winding Road 8.133
TTITLE17=The Long And Winding Road 8.134
TTITLE18=The Long And Winding Road 8.135
TTITLE19=The Long And Winding Road 8.136
TTITLE20=The Long And Winding Road 8.137
TTITLE21=The Long And Winding Road 8.138
TTITLE22=Let It Be 8.139
TTITLE23=Let It Be 8.140
TTITLE24=To Kingdom Come 8.141
TTITLE25=Dialogue
TTITLE26=Dialogue
EXTD=
EXTT0=
EXTT1=
EXTT2=
EXTT3=
EXTT4=
EXTT5=
EXTT6=
EXTT7=
EXTT8=
EXTT9=
EXTT10=
EXTT11=
EXTT12=
EXTT13=
EXTT14=
EXTT15=
EXTT16=
EXTT17=
EXTT18=
EXTT19=
EXTT20=
EXTT21=
EXTT22=
EXTT23=
EXTT24=
EXTT25=
EXTT26=
PLAYORDER=
